<mxfile host="app.diagrams.net" modified="2022-04-07T13:03:30.476Z" agent="5.0 (Windows NT 10.0; Win64; x64) AppleWebKit/537.36 (KHTML, like Gecko) Chrome/100.0.4896.75 Safari/537.36" etag="4I4rbDTi59PZ5lUQvTvf" version="17.4.1" type="github">
  <diagram id="C5RBs43oDa-KdzZeNtuy" name="Page-1">
    <mxGraphModel dx="868" dy="527" grid="1" gridSize="10" guides="1" tooltips="1" connect="1" arrows="1" fold="1" page="1" pageScale="1" pageWidth="827" pageHeight="1169" math="0" shadow="0">
      <root>
        <mxCell id="WIyWlLk6GJQsqaUBKTNV-0" />
        <mxCell id="WIyWlLk6GJQsqaUBKTNV-1" parent="WIyWlLk6GJQsqaUBKTNV-0" />
        <mxCell id="WIyWlLk6GJQsqaUBKTNV-4" value="Yes" style="rounded=0;html=1;jettySize=auto;orthogonalLoop=1;fontSize=11;endArrow=block;endFill=0;endSize=8;strokeWidth=1;shadow=0;labelBackgroundColor=none;edgeStyle=orthogonalEdgeStyle;" parent="WIyWlLk6GJQsqaUBKTNV-1" source="WIyWlLk6GJQsqaUBKTNV-6" target="WIyWlLk6GJQsqaUBKTNV-10" edge="1">
          <mxGeometry y="20" relative="1" as="geometry">
            <mxPoint as="offset" />
          </mxGeometry>
        </mxCell>
        <mxCell id="2dtCp_6S5CVv_qOfweTY-3" style="edgeStyle=orthogonalEdgeStyle;rounded=0;orthogonalLoop=1;jettySize=auto;html=1;entryX=0;entryY=0.5;entryDx=0;entryDy=0;" edge="1" parent="WIyWlLk6GJQsqaUBKTNV-1" source="WIyWlLk6GJQsqaUBKTNV-6" target="2dtCp_6S5CVv_qOfweTY-2">
          <mxGeometry relative="1" as="geometry" />
        </mxCell>
        <mxCell id="WIyWlLk6GJQsqaUBKTNV-6" value="Event in OBM-OPEN" style="rhombus;whiteSpace=wrap;html=1;shadow=0;fontFamily=Helvetica;fontSize=12;align=center;strokeWidth=1;spacing=6;spacingTop=-4;" parent="WIyWlLk6GJQsqaUBKTNV-1" vertex="1">
          <mxGeometry x="170" y="170" width="140" height="100" as="geometry" />
        </mxCell>
        <mxCell id="2dtCp_6S5CVv_qOfweTY-7" style="edgeStyle=orthogonalEdgeStyle;rounded=0;orthogonalLoop=1;jettySize=auto;html=1;entryX=0;entryY=0.5;entryDx=0;entryDy=0;" edge="1" parent="WIyWlLk6GJQsqaUBKTNV-1" source="WIyWlLk6GJQsqaUBKTNV-10" target="2dtCp_6S5CVv_qOfweTY-5">
          <mxGeometry relative="1" as="geometry" />
        </mxCell>
        <mxCell id="2dtCp_6S5CVv_qOfweTY-12" value="" style="edgeStyle=orthogonalEdgeStyle;rounded=0;orthogonalLoop=1;jettySize=auto;html=1;" edge="1" parent="WIyWlLk6GJQsqaUBKTNV-1" source="WIyWlLk6GJQsqaUBKTNV-10" target="2dtCp_6S5CVv_qOfweTY-5">
          <mxGeometry relative="1" as="geometry" />
        </mxCell>
        <mxCell id="WIyWlLk6GJQsqaUBKTNV-10" value="Ticket in Remedy&lt;br&gt;Assigned" style="rhombus;whiteSpace=wrap;html=1;shadow=0;fontFamily=Helvetica;fontSize=12;align=center;strokeWidth=1;spacing=6;spacingTop=-4;" parent="WIyWlLk6GJQsqaUBKTNV-1" vertex="1">
          <mxGeometry x="170" y="330" width="140" height="90" as="geometry" />
        </mxCell>
        <mxCell id="2dtCp_6S5CVv_qOfweTY-45" style="edgeStyle=orthogonalEdgeStyle;rounded=0;orthogonalLoop=1;jettySize=auto;html=1;entryX=0.5;entryY=0;entryDx=0;entryDy=0;" edge="1" parent="WIyWlLk6GJQsqaUBKTNV-1" source="2dtCp_6S5CVv_qOfweTY-0" target="WIyWlLk6GJQsqaUBKTNV-6">
          <mxGeometry relative="1" as="geometry" />
        </mxCell>
        <mxCell id="2dtCp_6S5CVv_qOfweTY-0" value="Normal/Closure to OBM" style="rounded=1;whiteSpace=wrap;html=1;" vertex="1" parent="WIyWlLk6GJQsqaUBKTNV-1">
          <mxGeometry x="180" y="60" width="120" height="50" as="geometry" />
        </mxCell>
        <mxCell id="2dtCp_6S5CVv_qOfweTY-6" style="edgeStyle=orthogonalEdgeStyle;rounded=0;orthogonalLoop=1;jettySize=auto;html=1;entryX=0.5;entryY=0;entryDx=0;entryDy=0;" edge="1" parent="WIyWlLk6GJQsqaUBKTNV-1" source="2dtCp_6S5CVv_qOfweTY-2" target="2dtCp_6S5CVv_qOfweTY-5">
          <mxGeometry relative="1" as="geometry" />
        </mxCell>
        <mxCell id="2dtCp_6S5CVv_qOfweTY-2" value="Event in OBM&lt;br&gt;Close" style="rhombus;whiteSpace=wrap;html=1;" vertex="1" parent="WIyWlLk6GJQsqaUBKTNV-1">
          <mxGeometry x="370" y="170" width="145" height="100" as="geometry" />
        </mxCell>
        <mxCell id="2dtCp_6S5CVv_qOfweTY-5" value="Ticket in Remedy&lt;br&gt;Resolved" style="rhombus;whiteSpace=wrap;html=1;shadow=0;fontFamily=Helvetica;fontSize=12;align=center;strokeWidth=1;spacing=6;spacingTop=-4;" vertex="1" parent="WIyWlLk6GJQsqaUBKTNV-1">
          <mxGeometry x="372.5" y="330" width="140" height="90" as="geometry" />
        </mxCell>
        <mxCell id="2dtCp_6S5CVv_qOfweTY-8" value="State change" style="text;html=1;align=center;verticalAlign=middle;resizable=0;points=[];autosize=1;strokeColor=none;fillColor=none;" vertex="1" parent="WIyWlLk6GJQsqaUBKTNV-1">
          <mxGeometry x="285" y="180" width="90" height="20" as="geometry" />
        </mxCell>
        <mxCell id="2dtCp_6S5CVv_qOfweTY-11" value="Incident state change" style="text;html=1;align=center;verticalAlign=middle;resizable=0;points=[];autosize=1;strokeColor=none;fillColor=none;" vertex="1" parent="WIyWlLk6GJQsqaUBKTNV-1">
          <mxGeometry x="280" y="330" width="130" height="20" as="geometry" />
        </mxCell>
        <mxCell id="2dtCp_6S5CVv_qOfweTY-26" value="Yes" style="rounded=0;html=1;jettySize=auto;orthogonalLoop=1;fontSize=11;endArrow=block;endFill=0;endSize=8;strokeWidth=1;shadow=0;labelBackgroundColor=none;edgeStyle=orthogonalEdgeStyle;" edge="1" parent="WIyWlLk6GJQsqaUBKTNV-1" source="2dtCp_6S5CVv_qOfweTY-28" target="2dtCp_6S5CVv_qOfweTY-31">
          <mxGeometry y="20" relative="1" as="geometry">
            <mxPoint as="offset" />
          </mxGeometry>
        </mxCell>
        <mxCell id="2dtCp_6S5CVv_qOfweTY-27" style="edgeStyle=orthogonalEdgeStyle;rounded=0;orthogonalLoop=1;jettySize=auto;html=1;entryX=0;entryY=0.5;entryDx=0;entryDy=0;" edge="1" parent="WIyWlLk6GJQsqaUBKTNV-1" source="2dtCp_6S5CVv_qOfweTY-28" target="2dtCp_6S5CVv_qOfweTY-35">
          <mxGeometry relative="1" as="geometry" />
        </mxCell>
        <mxCell id="2dtCp_6S5CVv_qOfweTY-28" value="Event in OBM-OPEN" style="rhombus;whiteSpace=wrap;html=1;shadow=0;fontFamily=Helvetica;fontSize=12;align=center;strokeWidth=1;spacing=6;spacingTop=-4;" vertex="1" parent="WIyWlLk6GJQsqaUBKTNV-1">
          <mxGeometry x="630" y="160" width="140" height="100" as="geometry" />
        </mxCell>
        <mxCell id="2dtCp_6S5CVv_qOfweTY-29" style="edgeStyle=orthogonalEdgeStyle;rounded=0;orthogonalLoop=1;jettySize=auto;html=1;entryX=0;entryY=0.5;entryDx=0;entryDy=0;" edge="1" parent="WIyWlLk6GJQsqaUBKTNV-1" source="2dtCp_6S5CVv_qOfweTY-31" target="2dtCp_6S5CVv_qOfweTY-36">
          <mxGeometry relative="1" as="geometry" />
        </mxCell>
        <mxCell id="2dtCp_6S5CVv_qOfweTY-30" value="" style="edgeStyle=orthogonalEdgeStyle;rounded=0;orthogonalLoop=1;jettySize=auto;html=1;" edge="1" parent="WIyWlLk6GJQsqaUBKTNV-1" source="2dtCp_6S5CVv_qOfweTY-31" target="2dtCp_6S5CVv_qOfweTY-36">
          <mxGeometry relative="1" as="geometry" />
        </mxCell>
        <mxCell id="2dtCp_6S5CVv_qOfweTY-31" value="Ticket in Remedy&lt;br&gt;Assigned" style="rhombus;whiteSpace=wrap;html=1;shadow=0;fontFamily=Helvetica;fontSize=12;align=center;strokeWidth=1;spacing=6;spacingTop=-4;" vertex="1" parent="WIyWlLk6GJQsqaUBKTNV-1">
          <mxGeometry x="630" y="320" width="140" height="90" as="geometry" />
        </mxCell>
        <mxCell id="2dtCp_6S5CVv_qOfweTY-44" value="" style="edgeStyle=orthogonalEdgeStyle;rounded=0;orthogonalLoop=1;jettySize=auto;html=1;" edge="1" parent="WIyWlLk6GJQsqaUBKTNV-1" source="2dtCp_6S5CVv_qOfweTY-35" target="2dtCp_6S5CVv_qOfweTY-43">
          <mxGeometry relative="1" as="geometry" />
        </mxCell>
        <mxCell id="2dtCp_6S5CVv_qOfweTY-35" value="Event in OBM&lt;br&gt;Resolved" style="rhombus;whiteSpace=wrap;html=1;" vertex="1" parent="WIyWlLk6GJQsqaUBKTNV-1">
          <mxGeometry x="830" y="160" width="145" height="100" as="geometry" />
        </mxCell>
        <mxCell id="2dtCp_6S5CVv_qOfweTY-41" style="edgeStyle=orthogonalEdgeStyle;rounded=0;orthogonalLoop=1;jettySize=auto;html=1;entryX=0.5;entryY=1;entryDx=0;entryDy=0;" edge="1" parent="WIyWlLk6GJQsqaUBKTNV-1" source="2dtCp_6S5CVv_qOfweTY-36" target="2dtCp_6S5CVv_qOfweTY-35">
          <mxGeometry relative="1" as="geometry" />
        </mxCell>
        <mxCell id="2dtCp_6S5CVv_qOfweTY-36" value="Ticket in Remedy&lt;br&gt;Resolved" style="rhombus;whiteSpace=wrap;html=1;shadow=0;fontFamily=Helvetica;fontSize=12;align=center;strokeWidth=1;spacing=6;spacingTop=-4;" vertex="1" parent="WIyWlLk6GJQsqaUBKTNV-1">
          <mxGeometry x="832.5" y="320" width="140" height="90" as="geometry" />
        </mxCell>
        <mxCell id="2dtCp_6S5CVv_qOfweTY-37" value="State change" style="text;html=1;align=center;verticalAlign=middle;resizable=0;points=[];autosize=1;strokeColor=none;fillColor=none;" vertex="1" parent="WIyWlLk6GJQsqaUBKTNV-1">
          <mxGeometry x="745" y="170" width="90" height="20" as="geometry" />
        </mxCell>
        <mxCell id="2dtCp_6S5CVv_qOfweTY-38" value="Incident state change" style="text;html=1;align=center;verticalAlign=middle;resizable=0;points=[];autosize=1;strokeColor=none;fillColor=none;" vertex="1" parent="WIyWlLk6GJQsqaUBKTNV-1">
          <mxGeometry x="740" y="320" width="130" height="20" as="geometry" />
        </mxCell>
        <mxCell id="2dtCp_6S5CVv_qOfweTY-40" style="edgeStyle=orthogonalEdgeStyle;rounded=0;orthogonalLoop=1;jettySize=auto;html=1;exitX=0.5;exitY=0;exitDx=0;exitDy=0;" edge="1" parent="WIyWlLk6GJQsqaUBKTNV-1" source="2dtCp_6S5CVv_qOfweTY-39" target="2dtCp_6S5CVv_qOfweTY-31">
          <mxGeometry relative="1" as="geometry" />
        </mxCell>
        <mxCell id="2dtCp_6S5CVv_qOfweTY-39" value="Manual INC Resolution" style="rounded=1;whiteSpace=wrap;html=1;" vertex="1" parent="WIyWlLk6GJQsqaUBKTNV-1">
          <mxGeometry x="640" y="460" width="120" height="60" as="geometry" />
        </mxCell>
        <mxCell id="2dtCp_6S5CVv_qOfweTY-43" value="Event in OBM&lt;br&gt;Closed due to Automation flow" style="whiteSpace=wrap;html=1;" vertex="1" parent="WIyWlLk6GJQsqaUBKTNV-1">
          <mxGeometry x="842.5" y="40" width="120" height="60" as="geometry" />
        </mxCell>
      </root>
    </mxGraphModel>
  </diagram>
</mxfile>
